<!DOCTYPE svg PUBLIC "-//W3C//DTD SVG 1.1//EN" "http://www.w3.org/Graphics/SVG/1.1/DTD/svg11.dtd">
<!-- Uploaded to: SVG Repo, www.svgrepo.com, Transformed by: SVG Repo Mixer Tools -->
<svg fill="#000000" version="1.1" id="Layer_1" xmlns="http://www.w3.org/2000/svg" xmlns:xlink="http://www.w3.org/1999/xlink" viewBox="0 0 512 512" xml:space="preserve" width="64px" height="64px">
<g id="SVGRepo_bgCarrier" stroke-width="0"/>
<g id="SVGRepo_tracerCarrier" stroke-linecap="round" stroke-linejoin="round"/>
<g id="SVGRepo_iconCarrier"> <g> <g> <rect x="113.185" y="128.39" width="89.622" height="33.391"/> </g> </g> <g> <g> <path d="M158.003,196.845c-26.084,0-47.304,21.22-47.304,47.304v35.836c0,26.084,21.22,47.304,47.304,47.304 s47.304-21.221,47.304-47.304v-35.836C205.307,218.065,184.087,196.845,158.003,196.845z M171.916,279.985 c0,7.672-6.241,13.913-13.913,13.913c-7.672,0-13.913-6.242-13.913-13.913v-1.222h27.826V279.985z M171.916,245.372H144.09v-1.222 c0-7.672,6.241-13.913,13.913-13.913c7.672,0,13.913,6.241,13.913,13.913V245.372z"/> </g> </g> <g> <g> <path d="M439.166,114.875V81.904h-33.391v32.971h-16.888V81.904h-33.391v32.971h-21.149v57.64c0,28.95,19.64,53.385,46.289,60.722 v142.404c0,56.777-46.191,102.969-102.969,102.969c-51.587,0-94.431-38.133-101.833-87.691 c50.165-8.507,88.49-52.267,88.49-104.818V0H51.682v286.099c0,53.258,39.364,97.493,90.524,105.146 C149.973,459.112,207.756,512,277.667,512c75.189,0,136.36-61.171,136.36-136.36V233.237c26.651-7.336,46.29-31.772,46.29-60.722 v-57.64H439.166z M85.074,33.391h11.42v17.091h33.391V33.391h11.422v17.091h33.391V33.391h11.422v17.091h33.391V33.391h11.421 v40.94H85.074V33.391z M85.074,286.099V107.723h145.859V286.1c0,40.213-32.717,72.93-72.929,72.93S85.074,326.313,85.074,286.099z M426.925,172.515c0,16.318-13.276,29.594-29.595,29.594c-16.317,0-29.594-13.276-29.594-29.594v-24.249h59.188V172.515z"/> </g> </g> </g>
</svg>